<svg width="19" height="18" viewBox="0 0 19 18" fill="none" xmlns="http://www.w3.org/2000/svg">
<path d="M4.07143 2.16369C4.07117 2.68229 3.8649 3.17955 3.49801 3.54607C3.13112 3.9126 2.63366 4.11836 2.11506 4.1181C1.59646 4.11784 1.0992 3.91158 0.732674 3.54469C0.36615 3.1778 0.160385 2.68034 0.160645 2.16173C0.160904 1.64313 0.367166 1.14587 0.734057 0.779351C1.10095 0.412827 1.59841 0.207062 2.11701 0.207321C2.63561 0.207581 3.13287 0.413843 3.4994 0.780733C3.86592 1.14762 4.07168 1.64509 4.07143 2.16369ZM4.13009 5.56607H0.219306V17.8068H4.13009V5.56607ZM10.3091 5.56607H6.41789V17.8068H10.27V11.3834C10.27 7.80499 14.9336 7.47258 14.9336 11.3834V17.8068H18.7955V10.0537C18.7955 4.02131 11.893 4.24618 10.27 7.2086L10.3091 5.56607Z" fill="white"/>
</svg>
