<svg width="186" height="49" viewBox="0 0 186 49" fill="none" xmlns="http://www.w3.org/2000/svg">
<path d="M14.9516 15.4309C17.6364 15.4309 19.6366 16.4243 20.9521 18.411C22.2677 20.3978 22.9255 23.1766 22.9255 26.7473C22.9255 28.9489 22.5764 30.9222 21.8784 32.6673C21.2072 34.3856 20.2272 35.7415 18.9385 36.7348C17.6498 37.7014 16.1463 38.1846 14.4281 38.1846C12.2802 38.1846 10.5485 37.4463 9.23295 35.9697V45.7558L2.86996 46.4404V16.1155H8.46778L8.78996 18.4916C9.62225 17.4445 10.5754 16.6793 11.6493 16.1961C12.7232 15.6859 13.824 15.4309 14.9516 15.4309ZM12.495 33.5131C15.0456 33.5131 16.3208 31.2847 16.3208 26.8279C16.3208 24.3042 16.0389 22.559 15.4751 21.5925C14.9113 20.5991 14.0656 20.1024 12.938 20.1024C12.2131 20.1024 11.5285 20.3172 10.8841 20.7468C10.2666 21.1764 9.71621 21.7939 9.23295 22.5993V31.6203C10.0921 32.8821 11.1794 33.5131 12.495 33.5131ZM33.2625 16.1155V37.5H26.8995V16.1155H33.2625ZM30.0407 4.83932C31.1415 4.83932 32.0409 5.18834 32.739 5.88639C33.4639 6.55759 33.8263 7.41673 33.8263 8.46381C33.8263 9.51088 33.4639 10.3834 32.739 11.0815C32.0409 11.7527 31.1415 12.0883 30.0407 12.0883C28.94 12.0883 28.0405 11.7527 27.3425 11.0815C26.6444 10.3834 26.2954 9.51088 26.2954 8.46381C26.2954 7.41673 26.6444 6.55759 27.3425 5.88639C28.0405 5.18834 28.94 4.83932 30.0407 4.83932ZM49.8637 15.5114C50.6423 15.5114 51.3538 15.6054 51.9982 15.7933L50.9914 21.955C50.1859 21.767 49.5416 21.6731 49.0583 21.6731C47.7964 21.6731 46.8299 22.1161 46.1587 23.002C45.5143 23.8612 45.0042 25.1633 44.6284 26.9084V37.5H38.2654V16.1155H43.8229L44.3465 20.2635C44.8297 18.7869 45.5546 17.6324 46.5211 16.8001C47.5145 15.941 48.6287 15.5114 49.8637 15.5114ZM62.4727 15.4309C65.7481 15.4309 68.3121 16.4377 70.1647 18.4513C72.0172 20.438 72.9434 23.2302 72.9434 26.8279C72.9434 29.11 72.5139 31.1102 71.6547 32.8284C70.8224 34.5199 69.6143 35.8354 68.0302 36.7751C66.473 37.7148 64.6205 38.1846 62.4727 38.1846C59.2241 38.1846 56.6601 37.1912 54.7807 35.2045C52.9282 33.1909 52.0019 30.3853 52.0019 26.7876C52.0019 24.5055 52.4181 22.5188 53.2504 20.8273C54.1095 19.1091 55.3177 17.7801 56.8749 16.8404C58.4589 15.9007 60.3248 15.4309 62.4727 15.4309ZM62.4727 20.1024C61.184 20.1024 60.2174 20.6528 59.5731 21.7536C58.9287 22.8275 58.6066 24.5055 58.6066 26.7876C58.6066 29.1234 58.9153 30.8283 59.5328 31.9022C60.1772 32.9761 61.1571 33.5131 62.4727 33.5131C63.7614 33.5131 64.7279 32.9761 65.3723 31.9022C66.0166 30.8014 66.3388 29.11 66.3388 26.8279C66.3388 24.4921 66.0166 22.7873 65.3723 21.7133C64.7548 20.6394 63.7882 20.1024 62.4727 20.1024ZM88.8503 15.4309C91.4009 15.4309 93.3608 16.4377 94.73 18.4513C96.0993 20.438 96.7839 23.2302 96.7839 26.8279C96.7839 29.0294 96.4349 30.9893 95.7368 32.7076C95.0656 34.4259 94.0857 35.7683 92.797 36.7348C91.5351 37.7014 90.0316 38.1846 88.2865 38.1846C87.132 38.1846 86.0715 37.943 85.105 37.4597C84.1653 36.9765 83.3599 36.3053 82.6886 35.4461L82.3665 37.5H76.7284V7.61809L83.0914 6.93347V18.2902C83.7357 17.4042 84.5546 16.7062 85.548 16.1961C86.5682 15.6859 87.669 15.4309 88.8503 15.4309ZM86.434 33.5533C88.9308 33.5533 90.1793 31.3115 90.1793 26.8279C90.1793 24.2773 89.8839 22.5188 89.2933 21.5522C88.7026 20.5857 87.8435 20.1024 86.7159 20.1024C85.2929 20.1024 84.0847 20.9347 83.0914 22.5993V31.4995C83.4941 32.1438 83.9774 32.6539 84.5412 33.0298C85.1318 33.3788 85.7628 33.5533 86.434 33.5533ZM107.121 16.1155V37.5H100.758V16.1155H107.121ZM103.899 4.83932C105 4.83932 105.899 5.18834 106.597 5.88639C107.322 6.55759 107.685 7.41673 107.685 8.46381C107.685 9.51088 107.322 10.3834 106.597 11.0815C105.899 11.7527 105 12.0883 103.899 12.0883C102.798 12.0883 101.899 11.7527 101.201 11.0815C100.503 10.3834 100.154 9.51088 100.154 8.46381C100.154 7.41673 100.503 6.55759 101.201 5.88639C101.899 5.18834 102.798 4.83932 103.899 4.83932Z" fill="white"/>
<path d="M128.775 26.0909L126.377 37.8944H124.287L122.111 28.0096L119.918 37.8944H117.879L115.481 26.0909H117.074L118.976 36.4725L121.254 26.0909H122.985L125.314 36.4725L127.285 26.0909H128.775ZM137.309 26.0909L137.121 27.3929H132.547V31.2474H136.521V32.5494H132.547V36.5924H137.446V37.8944H130.919V26.0909H137.309ZM145.295 31.6586C146.106 31.7956 146.763 32.0812 147.265 32.5152C147.768 32.9492 148.019 33.623 148.019 34.5367C148.019 36.7752 146.46 37.8944 143.342 37.8944H140.087V26.0909H142.88C144.376 26.0909 145.518 26.3364 146.306 26.8275C147.105 27.3186 147.505 28.0667 147.505 29.0717C147.505 29.757 147.288 30.3281 146.854 30.7849C146.432 31.2417 145.912 31.533 145.295 31.6586ZM141.715 27.3757V31.0933H143.496C144.182 31.0933 144.741 30.9276 145.175 30.5964C145.621 30.2652 145.843 29.797 145.843 29.1917C145.843 28.5064 145.609 28.0324 145.141 27.7698C144.684 27.5071 143.988 27.3757 143.051 27.3757H141.715ZM143.342 36.5924C144.302 36.5924 145.033 36.4497 145.535 36.1641C146.049 35.8786 146.306 35.3361 146.306 34.5367C146.306 33.76 146.06 33.2004 145.569 32.8578C145.078 32.5152 144.439 32.3438 143.651 32.3438H141.715V36.5924H143.342ZM152.137 26.0909V37.8944H150.51V26.0909H152.137ZM163.837 37.8944H161.661L156.864 27.8726C156.933 28.6606 156.984 29.3915 157.019 30.0654C157.064 30.7278 157.087 31.533 157.087 32.4809V37.8944H155.562V26.0909H157.687L162.535 36.1299C162.501 35.8329 162.455 35.3133 162.398 34.5709C162.341 33.8286 162.312 33.149 162.312 32.5323V26.0909H163.837V37.8944ZM173.544 37.8944L172.653 34.9307H168.182L167.291 37.8944H165.646L169.432 26.0909H171.488L175.257 37.8944H173.544ZM168.576 33.6116H172.259L170.426 27.4443L168.576 33.6116ZM180.538 32.892H178.704V37.8944H177.077V26.0909H180.178C181.651 26.0909 182.765 26.3707 183.518 26.9303C184.284 27.49 184.666 28.3237 184.666 29.4315C184.666 30.2538 184.455 30.9219 184.032 31.4359C183.61 31.9498 182.97 32.3381 182.114 32.6008L185.3 37.8944H183.364L180.538 32.892ZM180.349 31.6415C181.206 31.6415 181.851 31.4701 182.285 31.1275C182.719 30.7735 182.936 30.2081 182.936 29.4315C182.936 28.7006 182.713 28.1752 182.268 27.8554C181.834 27.5242 181.131 27.3586 180.161 27.3586H178.704V31.6415H180.349Z" fill="#815AF0"/>
</svg>
