<svg width="21" height="18" viewBox="0 0 21 18" fill="none" xmlns="http://www.w3.org/2000/svg">
<path d="M20.0619 2.80497C19.3155 3.13513 18.524 3.35196 17.7135 3.44829C18.5677 2.93738 19.2071 2.1333 19.5124 1.1859C18.7107 1.66302 17.8318 1.99739 16.9157 2.17826C16.3003 1.51986 15.4847 1.08321 14.5956 0.936186C13.7064 0.789162 12.7937 0.940005 11.9991 1.36527C11.2046 1.79053 10.5728 2.46638 10.202 3.28775C9.83115 4.10912 9.74209 5.02999 9.94863 5.90719C8.32282 5.82571 6.73233 5.40321 5.28041 4.66715C3.82849 3.93108 2.5476 2.8979 1.52089 1.63467C1.15748 2.25888 0.966497 2.96846 0.967519 3.69076C0.967519 5.10842 1.68906 6.36084 2.78603 7.09412C2.13685 7.07368 1.50196 6.89836 0.934277 6.58278V6.63362C0.934473 7.57778 1.26119 8.49282 1.85903 9.22359C2.45687 9.95437 3.28904 10.4559 4.21444 10.6431C3.61181 10.8065 2.97992 10.8305 2.3666 10.7135C2.62752 11.5262 3.13605 12.237 3.82101 12.7463C4.50597 13.2556 5.33305 13.5379 6.18646 13.5537C5.33829 14.2199 4.36714 14.7123 3.32854 15.0029C2.28993 15.2934 1.20425 15.3764 0.133545 15.2471C2.0026 16.4491 4.17836 17.0873 6.40057 17.0852C13.922 17.0852 18.0351 10.8543 18.0351 5.45061C18.0351 5.27463 18.0303 5.09668 18.0224 4.92266C18.823 4.34402 19.514 3.62723 20.0629 2.80595L20.0619 2.80497Z" fill="white"/>
</svg>
