<svg width="294" height="77" viewBox="0 0 294 77" fill="none" xmlns="http://www.w3.org/2000/svg">
<path d="M23.3555 24.928C27.6222 24.928 30.8008 26.5067 32.8915 29.664C34.9822 32.8213 36.0275 37.2373 36.0275 42.912C36.0275 46.4107 35.4728 49.5467 34.3635 52.32C33.2968 55.0507 31.7395 57.2053 29.6915 58.784C27.6435 60.32 25.2542 61.088 22.5235 61.088C19.1102 61.088 16.3582 59.9147 14.2675 57.568V73.12L4.1555 74.208V26.016H13.0515L13.5635 29.792C14.8862 28.128 16.4008 26.912 18.1075 26.144C19.8142 25.3333 21.5635 24.928 23.3555 24.928ZM19.4515 53.664C23.5048 53.664 25.5315 50.1227 25.5315 43.04C25.5315 39.0293 25.0835 36.256 24.1875 34.72C23.2915 33.1413 21.9475 32.352 20.1555 32.352C19.0035 32.352 17.9155 32.6933 16.8915 33.376C15.9102 34.0587 15.0355 35.04 14.2675 36.32V50.656C15.6328 52.6613 17.3608 53.664 19.4515 53.664ZM52.455 26.016V60H42.343V26.016H52.455ZM47.335 8.096C49.0843 8.096 50.5137 8.65066 51.623 9.76C52.775 10.8267 53.351 12.192 53.351 13.856C53.351 15.52 52.775 16.9067 51.623 18.016C50.5137 19.0827 49.0843 19.616 47.335 19.616C45.5857 19.616 44.1563 19.0827 43.047 18.016C41.9377 16.9067 41.383 15.52 41.383 13.856C41.383 12.192 41.9377 10.8267 43.047 9.76C44.1563 8.65066 45.5857 8.096 47.335 8.096ZM78.8375 25.056C80.0748 25.056 81.2055 25.2053 82.2295 25.504L80.6295 35.296C79.3495 34.9973 78.3255 34.848 77.5575 34.848C75.5522 34.848 74.0162 35.552 72.9495 36.96C71.9255 38.3253 71.1148 40.3947 70.5175 43.168V60H60.4055V26.016H69.2375L70.0695 32.608C70.8375 30.2613 71.9895 28.4267 73.5255 27.104C75.1042 25.7387 76.8748 25.056 78.8375 25.056ZM98.8755 24.928C104.081 24.928 108.156 26.528 111.1 29.728C114.044 32.8853 115.516 37.3227 115.516 43.04C115.516 46.6667 114.833 49.8453 113.468 52.576C112.145 55.264 110.225 57.3547 107.708 58.848C105.233 60.3413 102.289 61.088 98.8755 61.088C93.7128 61.088 89.6382 59.5093 86.6515 56.352C83.7075 53.152 82.2355 48.6933 82.2355 42.976C82.2355 39.3493 82.8968 36.192 84.2195 33.504C85.5848 30.7733 87.5048 28.6613 89.9795 27.168C92.4968 25.6747 95.4622 24.928 98.8755 24.928ZM98.8755 32.352C96.8275 32.352 95.2915 33.2267 94.2675 34.976C93.2435 36.6827 92.7315 39.3493 92.7315 42.976C92.7315 46.688 93.2222 49.3973 94.2035 51.104C95.2275 52.8107 96.7848 53.664 98.8755 53.664C100.924 53.664 102.46 52.8107 103.484 51.104C104.508 49.3547 105.02 46.6667 105.02 43.04C105.02 39.328 104.508 36.6187 103.484 34.912C102.502 33.2053 100.966 32.352 98.8755 32.352ZM140.795 24.928C144.848 24.928 147.963 26.528 150.139 29.728C152.315 32.8853 153.403 37.3227 153.403 43.04C153.403 46.5387 152.848 49.6533 151.739 52.384C150.672 55.1147 149.115 57.248 147.067 58.784C145.061 60.32 142.672 61.088 139.899 61.088C138.064 61.088 136.379 60.704 134.843 59.936C133.349 59.168 132.069 58.1013 131.003 56.736L130.491 60H121.531V12.512L131.643 11.424V29.472C132.667 28.064 133.968 26.9547 135.547 26.144C137.168 25.3333 138.917 24.928 140.795 24.928ZM136.955 53.728C140.923 53.728 142.907 50.1653 142.907 43.04C142.907 38.9867 142.437 36.192 141.499 34.656C140.56 33.12 139.195 32.352 137.403 32.352C135.141 32.352 133.221 33.6747 131.643 36.32V50.464C132.283 51.488 133.051 52.2987 133.947 52.896C134.885 53.4507 135.888 53.728 136.955 53.728ZM169.83 26.016V60H159.718V26.016H169.83ZM164.71 8.096C166.459 8.096 167.889 8.65066 168.998 9.76C170.15 10.8267 170.726 12.192 170.726 13.856C170.726 15.52 170.15 16.9067 168.998 18.016C167.889 19.0827 166.459 19.616 164.71 19.616C162.961 19.616 161.531 19.0827 160.422 18.016C159.313 16.9067 158.758 15.52 158.758 13.856C158.758 12.192 159.313 10.8267 160.422 9.76C161.531 8.65066 162.961 8.096 164.71 8.096Z" fill="white"/>
<path d="M203.142 41.242L199.331 60H196.009L192.552 44.2912L189.067 60H185.827L182.016 41.242H184.548L187.57 57.7403L191.191 41.242H193.94L197.643 57.7403L200.774 41.242H203.142ZM216.705 41.242L216.406 43.3111H209.137V49.4367H215.453V51.5058H209.137V57.9309H216.923V60H206.55V41.242H216.705ZM229.396 50.0901C230.685 50.3079 231.728 50.7616 232.527 51.4513C233.326 52.141 233.725 53.2119 233.725 54.6639C233.725 58.2213 231.248 60 226.293 60H221.12V41.242H225.557C227.935 41.242 229.75 41.6322 231.002 42.4126C232.273 43.1931 232.908 44.3819 232.908 45.9791C232.908 47.0681 232.563 47.9756 231.874 48.7016C231.202 49.4276 230.376 49.8904 229.396 50.0901ZM223.706 43.2838V49.1917H226.538C227.627 49.1917 228.516 48.9285 229.206 48.4021C229.913 47.8758 230.267 47.1316 230.267 46.1697C230.267 45.0807 229.895 44.3275 229.151 43.91C228.425 43.4926 227.318 43.2838 225.83 43.2838H223.706ZM226.293 57.9309C227.817 57.9309 228.979 57.704 229.777 57.2503C230.594 56.7965 231.002 55.9344 231.002 54.6639C231.002 53.4297 230.612 52.5403 229.832 51.9958C229.051 51.4513 228.035 51.1791 226.783 51.1791H223.706V57.9309H226.293ZM240.27 41.242V60H237.683V41.242H240.27ZM258.862 60H255.405L247.782 44.0734C247.891 45.3257 247.972 46.4873 248.027 47.5582C248.099 48.6109 248.136 49.8904 248.136 51.3969V60H245.713V41.242H249.089L256.793 57.1958C256.739 56.7239 256.666 55.8981 256.575 54.7183C256.485 53.5386 256.439 52.4587 256.439 51.4786V41.242H258.862V60ZM274.289 60L272.873 55.2901H265.767L264.351 60H261.738L267.755 41.242H271.022L277.011 60H274.289ZM266.393 53.1937H272.247L269.334 43.3927L266.393 53.1937ZM285.403 52.0503H282.49V60H279.903V41.242H284.831C287.173 41.242 288.942 41.6866 290.14 42.576C291.356 43.4653 291.964 44.7903 291.964 46.5508C291.964 47.8576 291.628 48.9194 290.957 49.7362C290.285 50.5529 289.269 51.17 287.908 51.5875L292.971 60H289.895L285.403 52.0503ZM285.103 50.0629C286.465 50.0629 287.49 49.7906 288.18 49.2461C288.87 48.6835 289.214 47.785 289.214 46.5508C289.214 45.3892 288.86 44.5543 288.153 44.0461C287.463 43.5198 286.347 43.2566 284.804 43.2566H282.49V50.0629H285.103Z" fill="white"/>
</svg>
